<?xml version="1.0" encoding="UTF-8"?>
<svg xmlns="http://www.w3.org/2000/svg" viewBox="128 80 252 348" role="img" aria-label="Content Warrior">
<path d="M0 0 C1.29808594 -0.00515625 2.59617187 -0.0103125 3.93359375 -0.015625 C7.2980839 0.23064554 9.55514047 0.78977919 12.5625 2.25 C12.5625 5.22 12.5625 8.19 12.5625 11.25 C13.63564453 11.37955078 13.63564453 11.37955078 14.73046875 11.51171875 C36.65143611 14.60277366 55.26830691 26.64789031 69.5625 43.25 C70.875 46.08203125 70.875 46.08203125 71.5625 48.25 C66.89614111 52.61598087 62.315417 55.74488827 56.5 58.375 C55.39833496 58.88365601 55.39833496 58.88365601 54.27441406 59.40258789 C47.55044196 62.41995949 40.74481161 64.56842704 33.5625 66.25 C32.74910156 66.4459375 31.93570313 66.641875 31.09765625 66.84375 C27.9517898 67.34786419 24.93434098 67.34466506 21.75 67.3125 C20.58855469 67.30347656 19.42710937 67.29445313 18.23046875 67.28515625 C17.35003906 67.27355469 16.46960938 67.26195312 15.5625 67.25 C12.09176279 59.98360551 9.74595508 52.73435999 7.8125 44.9375 C7.60214111 44.09026367 7.39178223 43.24302734 7.17504883 42.37011719 C6.04678858 37.67618539 5.23312426 33.03477365 4.5625 28.25 C4.44667335 38.08995972 4.35781894 47.9297574 4.30343914 57.77025986 C4.27733994 62.33959778 4.2419365 66.90846948 4.18530273 71.47753906 C4.13099369 75.8866255 4.1010819 80.29526342 4.08811378 84.70465851 C4.07887182 86.38724073 4.06082411 88.06979827 4.03384972 89.75218964 C3.99757197 92.10844546 3.99255379 94.46284598 3.99487305 96.81933594 C3.97689667 97.51561096 3.95892029 98.21188599 3.94039917 98.92926025 C3.91002042 101.13293282 3.91002042 101.13293282 4.5625 104.25 C6.92743223 106.6241718 6.92743223 106.6241718 9.5625 108.25 C10.99554064 111.11608129 10.86894155 113.06300783 10.5625 116.25 C7.40460526 121.82894737 7.40460526 121.82894737 4.5625 123.25 C-0.40817782 123.6251455 -3.48901502 123.40878799 -7.4375 120.25 C-9.76152951 117.04062591 -9.91320691 114.13493979 -9.4375 110.25 C-7.63756226 107.55009338 -6.353727 105.7081135 -3.4375 104.25 C-3.4375 79.5 -3.4375 54.75 -3.4375 29.25 C-4.4275 34.53 -5.4175 39.81 -6.4375 45.25 C-12.12141647 68.81789042 -22.26217334 90.67190047 -39.6640625 107.8125 C-41.69456247 110.09145418 -41.69456247 110.09145418 -41.40234375 112.80078125 C-40.36163721 115.44257478 -39.14637245 117.22227568 -37.375 119.4375 C-30.15995331 129.43782139 -25.75911415 141.19740922 -22.4375 153 C-22.2297998 153.73798828 -22.02209961 154.47597656 -21.80810547 155.23632812 C-20.73271535 159.32713848 -20.22488522 163.02428125 -20.4375 167.25 C-21.52289063 167.18296875 -22.60828125 167.1159375 -23.7265625 167.046875 C-28.03203776 166.93802167 -32.32169115 166.83820116 -36.4375 168.25 C-38.85231592 171.01820361 -39.81729432 173.53182455 -41.08984375 176.96484375 C-44.10195443 184.3074092 -50.51164183 190.45726815 -57.4375 194.25 C-60.61589691 195.30946564 -62.85595348 195.37064296 -66.1940918 195.36352539 C-67.96558846 195.36341209 -67.96558846 195.36341209 -69.77287292 195.36329651 C-71.04794205 195.35813522 -72.32301117 195.35297394 -73.63671875 195.34765625 C-74.94204056 195.3462413 -76.24736237 195.34482635 -77.59223938 195.34336853 C-81.05939656 195.3395538 -84.52651174 195.32973244 -87.99365234 195.31866455 C-91.53287182 195.30842798 -95.0720981 195.3038661 -98.61132812 195.29882812 C-105.55340265 195.28810923 -112.49544931 195.27104534 -119.4375 195.25 C-116.25463657 192.03009961 -113.07289431 189.09264118 -109.5 186.3125 C-96.32895185 175.60099805 -81.79099516 163.00207775 -79.4375 145.25 C-79.03554274 137.13622992 -79.93065496 129.28825466 -80.9375 121.25 C-84.37626233 91.18040224 -83.83094341 64.36066306 -64.42236328 39.7722168 C-52.20811288 25.11005961 -33.60446031 13.93085108 -14.5 11.4375 C-13.489375 11.375625 -12.47875 11.31375 -11.4375 11.25 C-11.4375 8.28 -11.4375 5.31 -11.4375 2.25 C-7.08094477 0.07172238 -4.80219286 -0.01903743 0 0 Z " fill="#102434" transform="translate(255.4375,89.75)"/>
<path d="M0 0 C0.66 0 1.32 0 2 0 C4.13650085 6.7428573 5.5232471 13.52591105 6.625 20.5 C6.74786377 21.26997314 6.87072754 22.03994629 6.99731445 22.83325195 C8.65212159 33.68472671 9.19453987 44.40124587 9.1875 55.375 C9.18669434 56.68758789 9.18588867 58.00017578 9.18505859 59.35253906 C9.09504343 73.80791467 8.0217817 87.85880321 5 102 C1.02688367 101.16330535 -1.13653373 99.49847972 -4.3125 96.9375 C-8.92149591 93.34531168 -13.65748747 90.31420125 -18.8125 87.5625 C-19.42198486 87.23306396 -20.03146973 86.90362793 -20.65942383 86.56420898 C-26.43746415 83.5578702 -32.4116079 81.2339079 -39 82 C-41.32319869 84.86728634 -41.32319869 84.86728634 -40.9375 88.375 C-39.02606114 95.76589693 -32.13996443 99.04366004 -26 102.8125 C-25.16291504 103.33513428 -24.32583008 103.85776855 -23.46337891 104.39624023 C-19.62957018 106.78456869 -15.77892469 109.14142751 -11.8984375 111.453125 C-10.99544922 111.9948938 -10.99544922 111.9948938 -10.07421875 112.54760742 C-8.47922589 113.50024899 -6.87657745 114.44003965 -5.2734375 115.37890625 C-3 117 -3 117 -2 120 C-2.39537048 122.19116211 -2.39537048 122.19116211 -3.13647461 124.77734375 C-3.54869263 126.23916328 -3.54869263 126.23916328 -3.96923828 127.73051453 C-4.43112549 129.31797234 -4.43112549 129.31797234 -4.90234375 130.9375 C-5.21550537 132.03822342 -5.52866699 133.13894684 -5.85131836 134.27302551 C-6.87171462 137.85112639 -7.90436529 141.4255585 -8.9375 145 C-9.63350815 147.43040686 -10.32890289 149.86098946 -11.02368164 152.29174805 C-15.58563073 168.22245651 -20.1929608 184.14126319 -25 200 C-28 200 -28 200 -30.64453125 197.5078125 C-31.70403875 196.38351315 -32.75978069 195.25565786 -33.8125 194.125 C-45.44194633 182.11331908 -59.82575247 171.47419872 -76.5625 168.4375 C-83.64274176 167.14513784 -83.64274176 167.14513784 -86.25 164.125 C-88 161 -88 161 -88.75756836 158.49487305 C-90.44023486 155.11598349 -92.2175361 154.49242785 -95.62890625 152.95703125 C-96.74587891 152.44076172 -97.86285156 151.92449219 -99.01367188 151.39257812 C-100.7703418 150.61043945 -100.7703418 150.61043945 -102.5625 149.8125 C-104.87869265 148.76176422 -107.19262929 147.70603627 -109.50390625 146.64453125 C-110.53330322 146.18409424 -111.5627002 145.72365723 -112.62329102 145.24926758 C-115 144 -115 144 -116 142 C-102.8 142 -89.6 142 -76 142 C-75.34 137.05 -74.68 132.1 -74 127 C-70.47142077 110.61832291 -63.5093988 94.14519657 -53 81 C-54.57753223 77.33052286 -56.86780886 74.73203933 -59.5 71.75 C-63.62170364 66.95174641 -67.15794749 61.93101123 -70.5 56.5625 C-70.92087891 55.88864258 -71.34175781 55.21478516 -71.77539062 54.52050781 C-73.8623482 51.10315747 -75.65553846 47.79225837 -77 44 C-75.73027344 43.84144531 -74.46054687 43.68289062 -73.15234375 43.51953125 C-45.91152905 39.91667094 -24.47177874 29.76861988 -6 9 C-4.27233373 6.58913651 -2.67270038 4.1651768 -1.15625 1.6171875 C-0.58390625 0.81667969 -0.58390625 0.81667969 0 0 Z " fill="#102434" transform="translate(352,122)"/>
<path d="M0 0 C4.85627617 1.67080884 7.97179768 4.36181051 10.5 8.8125 C12.85518576 14.38120588 12.67906377 18.8913283 10.8125 24.6875 C7.46019214 30.81413161 3.6340428 33.82677908 -3 36 C-8.93222686 36.75501069 -13.1332385 35.2657136 -18 32 C-22.24052228 27.64788503 -24.0801036 23.59470218 -24.3125 17.5625 C-24.16134189 12.49030555 -23.01147288 8.98353575 -19.3125 5.3359375 C-13.03877077 -0.17971612 -8.39860379 -0.90511269 0 0 Z " fill="#102231" transform="translate(196,343)"/>
<path d="M0 0 C4.41854291 3.11306432 8.02390999 6.75922996 9.75 11.9375 C10.28385142 17.90226294 10.30270149 22.89495595 6.75 27.9375 C1.97908493 32.83517852 -1.25746194 34.74443303 -8.125 35.1875 C-13.56890809 35.09659986 -16.95402775 33.08620267 -21 29.5 C-25.42722892 24.45787817 -25.69914166 20.51080232 -25.5546875 13.9140625 C-25.03074817 8.79557824 -23.44914751 5.92382678 -19.5546875 2.40625 C-13.38883543 -2.08708349 -7.13586857 -2.33288011 0 0 Z " fill="#0F2231" transform="translate(331.25,388.0625)"/>
<path d="M0 0 C1.134375 0.020625 2.26875 0.04125 3.4375 0.0625 C5.73311809 6.65629663 7.65839072 13.31197898 9.4375 20.0625 C11.62531834 14.54086324 13.31678698 9.03969553 14.7890625 3.28515625 C15.4375 1.0625 15.4375 1.0625 16.4375 0.0625 C18.77047433 0.02157063 21.10455225 0.02008277 23.4375 0.0625 C25.48927715 5.33849837 27.24254586 10.61252708 28.7890625 16.05859375 C29.2618466 18.03853488 29.2618466 18.03853488 30.4375 19.0625 C30.58372803 18.52246338 30.72995605 17.98242676 30.88061523 17.42602539 C31.54193555 14.99139078 32.20839688 12.55819321 32.875 10.125 C33.10509766 9.27486328 33.33519531 8.42472656 33.57226562 7.54882812 C33.79462891 6.73994141 34.01699219 5.93105469 34.24609375 5.09765625 C34.45032959 4.3487915 34.65456543 3.59992676 34.86499023 2.82836914 C35.4375 1.0625 35.4375 1.0625 36.4375 0.0625 C38.77047433 0.02157063 41.10455225 0.02008277 43.4375 0.0625 C42.87155068 7.5534681 41.1100717 14.32353325 38.9375 21.5 C38.61652344 22.58732422 38.29554688 23.67464844 37.96484375 24.79492188 C35.60576277 32.72597446 35.60576277 32.72597446 34.4375 35.0625 C31.7975 35.0625 29.1575 35.0625 26.4375 35.0625 C23.71350901 29.22537645 22.02710332 23.29690168 20.4375 17.0625 C18.19585759 20.42496361 17.42623082 23.2943486 16.375 27.1875 C14.53988429 33.96011571 14.53988429 33.96011571 13.4375 35.0625 C10.76691149 35.20365161 8.11317762 35.10497107 5.4375 35.0625 C-3.53276608 7.48546535 -3.53276608 7.48546535 -4.5625 1.0625 C-3.5625 0.0625 -3.5625 0.0625 0 0 Z " fill="#102232" transform="translate(141.5625,386.9375)"/>
<path d="M0 0 C0.81210937 -0.020625 1.62421875 -0.04125 2.4609375 -0.0625 C8.31248524 -0.10062083 11.62193079 0.89380002 16.0625 4.875 C17.93317058 8.61634115 18.04061001 12.16282863 17.25 16.25 C15.81508357 18.69633323 14.30696731 20.24445687 12.25 22.25 C13.34378361 25.34905357 14.53618545 27.65883636 16.4375 30.375 C17.3346875 31.798125 17.3346875 31.798125 18.25 33.25 C17.92 34.24 17.59 35.23 17.25 36.25 C14.01171875 36.62109375 14.01171875 36.62109375 10.25 36.25 C7.95703125 33.66015625 7.95703125 33.66015625 6.0625 30.3125 C4.23585924 27.0201492 4.23585924 27.0201492 2.25 24.25 C0.93 23.92 -0.39 23.59 -1.75 23.25 C-1.75 27.21 -1.75 31.17 -1.75 35.25 C-4.39 35.25 -7.03 35.25 -9.75 35.25 C-9.7746519 30.42619198 -9.79283693 25.60242033 -9.80493164 20.77856445 C-9.80997174 19.13630536 -9.81680378 17.49405077 -9.82543945 15.85180664 C-9.83751926 13.49624521 -9.84323139 11.14074291 -9.84765625 8.78515625 C-9.85281754 8.04660904 -9.85797882 7.30806183 -9.86329651 6.5471344 C-9.8634925 4.78101912 -9.81194719 3.01502854 -9.75 1.25 C-7.60552692 -0.89447308 -2.96113967 0.01844947 0 0 Z " fill="#112433" transform="translate(267.75,386.75)"/>
<path d="M0 0 C0.81210937 -0.020625 1.62421875 -0.04125 2.4609375 -0.0625 C8.31248524 -0.10062083 11.62193079 0.89380002 16.0625 4.875 C17.92443646 8.59887293 17.92431434 12.17511118 17.25 16.25 C15.375 19.3125 15.375 19.3125 13.25 21.25 C12.59 21.25 11.93 21.25 11.25 21.25 C11.7553125 22.09304688 12.260625 22.93609375 12.78125 23.8046875 C13.4309375 24.90039062 14.080625 25.99609375 14.75 27.125 C15.3996875 28.21554687 16.049375 29.30609375 16.71875 30.4296875 C18.25 33.25 18.25 33.25 18.25 35.25 C13.31467662 36.21943852 13.31467662 36.21943852 10.25 35.25 C7.84667089 32.57867376 5.99748633 29.80843347 4.109375 26.75390625 C2.34458831 23.82436586 2.34458831 23.82436586 -1.75 23.25 C-1.75 27.21 -1.75 31.17 -1.75 35.25 C-4.39 35.25 -7.03 35.25 -9.75 35.25 C-9.7746519 30.42619198 -9.79283693 25.60242033 -9.80493164 20.77856445 C-9.80997174 19.13630536 -9.81680378 17.49405077 -9.82543945 15.85180664 C-9.83751926 13.49624521 -9.84323139 11.14074291 -9.84765625 8.78515625 C-9.85281754 8.04660904 -9.85797882 7.30806183 -9.86329651 6.5471344 C-9.8634925 4.78101912 -9.81194719 3.01502854 -9.75 1.25 C-7.60552692 -0.89447308 -2.96113967 0.01844947 0 0 Z " fill="#112332" transform="translate(356.75,386.75)"/>
<path d="M0 0 C0.75603516 -0.020625 1.51207031 -0.04125 2.29101562 -0.0625 C8.06248099 -0.10254486 12.26363174 0.95601857 16.6875 4.9375 C18.35362107 8.36230443 18.46898917 11.56518984 17.8125 15.25 C15.9375 18.75 15.9375 18.75 13.8125 21.25 C13.1525 21.25 12.4925 21.25 11.8125 21.25 C12.15023437 21.84167969 12.48796875 22.43335938 12.8359375 23.04296875 C15.08891158 27.03450953 17.2744821 30.91558593 18.8125 35.25 C15.59353294 35.97262526 12.99952416 36.19392754 9.8125 35.25 C7.5725612 32.56728261 6.02195769 29.85495153 4.41796875 26.75390625 C2.92251688 23.79174909 2.92251688 23.79174909 -1.1875 23.25 C-1.1875 27.21 -1.1875 31.17 -1.1875 35.25 C-3.8275 35.25 -6.4675 35.25 -9.1875 35.25 C-9.2121519 30.42619198 -9.23033693 25.60242033 -9.24243164 20.77856445 C-9.24747174 19.13630536 -9.25430378 17.49405077 -9.26293945 15.85180664 C-9.27501926 13.49624521 -9.28073139 11.14074291 -9.28515625 8.78515625 C-9.29031754 8.04660904 -9.29547882 7.30806183 -9.30079651 6.5471344 C-9.3009925 4.78101912 -9.24944719 3.01502854 -9.1875 1.25 C-7.10837421 -0.82912579 -2.85404059 0.01897949 0 0 Z " fill="#102332" transform="translate(233.1875,386.75)"/>
<path d="M0 0 C3.1875 0.33984375 3.1875 0.33984375 5.3125 2.2109375 C5.93125 3.05785156 6.55 3.90476562 7.1875 4.77734375 C7.8578125 5.68097656 8.528125 6.58460938 9.21875 7.515625 C11.9389195 11.41777292 14.62976908 15.32885662 17.1875 19.33984375 C17.24808594 18.05207031 17.30867188 16.76429688 17.37109375 15.4375 C17.45548247 13.75910216 17.5401313 12.08071739 17.625 10.40234375 C17.66431641 9.55220703 17.70363281 8.70207031 17.74414062 7.82617188 C17.78603516 7.01728516 17.82792969 6.20839844 17.87109375 5.375 C17.90775146 4.62613525 17.94440918 3.87727051 17.98217773 3.10571289 C18.1875 1.33984375 18.1875 1.33984375 19.1875 0.33984375 C22.1875 0.21484375 22.1875 0.21484375 25.1875 0.33984375 C26.1875 1.33984375 26.1875 1.33984375 26.30102539 4.57446289 C26.30086631 6.00798501 26.29517407 7.44151287 26.28515625 8.875 C26.2837413 9.62825058 26.28232635 10.38150116 26.28086853 11.15757751 C26.27525376 13.57253935 26.26269883 15.98740976 26.25 18.40234375 C26.2449869 20.03580596 26.24042366 21.66926961 26.23632812 23.30273438 C26.22527954 27.3151396 26.20800506 31.32747616 26.1875 35.33984375 C18.80025626 35.82162052 18.80025626 35.82162052 16.0859375 33.6875 C15.58320313 32.93339844 15.08046875 32.17929687 14.5625 31.40234375 C14.00175781 30.59023438 13.44101562 29.778125 12.86328125 28.94140625 C12.03376953 27.65363281 12.03376953 27.65363281 11.1875 26.33984375 C10.31158203 25.05207031 10.31158203 25.05207031 9.41796875 23.73828125 C7.9826425 21.62058679 6.57470131 19.48924358 5.1875 17.33984375 C5.12691406 18.55542969 5.06632812 19.77101563 5.00390625 21.0234375 C4.91951668 22.60808603 4.8348679 24.19272077 4.75 25.77734375 C4.69102539 26.98100586 4.69102539 26.98100586 4.63085938 28.20898438 C4.30078125 34.2265625 4.30078125 34.2265625 3.1875 35.33984375 C0.85452567 35.38077312 -1.47955225 35.38226098 -3.8125 35.33984375 C-3.8371519 30.51603573 -3.85533693 25.69226408 -3.86743164 20.8684082 C-3.87247174 19.22614911 -3.87930378 17.58389452 -3.88793945 15.94165039 C-3.90001926 13.58608896 -3.90573139 11.23058666 -3.91015625 8.875 C-3.91531754 8.13645279 -3.92047882 7.39790558 -3.92579651 6.63697815 C-3.9259925 4.87086287 -3.87444719 3.10487229 -3.8125 1.33984375 C-2.8125 0.33984375 -2.8125 0.33984375 0 0 Z " fill="#112433" transform="translate(315.8125,342.66015625)"/>
<path d="M0 0 C7 0 7 0 8.96875 1.6171875 C9.4740625 2.36226563 9.979375 3.10734375 10.5 3.875 C11.06847656 4.68582031 11.63695312 5.49664062 12.22265625 6.33203125 C12.80917969 7.21246094 13.39570313 8.09289062 14 9 C15.31115522 10.85511786 16.62361518 12.70931437 17.9375 14.5625 C18.96073497 16.04000632 19.98247395 17.51855629 21 19 C21.06058594 17.71222656 21.12117188 16.42445313 21.18359375 15.09765625 C21.26798247 13.41925841 21.3526313 11.74087364 21.4375 10.0625 C21.47681641 9.21236328 21.51613281 8.36222656 21.55664062 7.48632812 C21.59853516 6.67744141 21.64042969 5.86855469 21.68359375 5.03515625 C21.72025146 4.2862915 21.75690918 3.53742676 21.79467773 2.76586914 C22 1 22 1 23 0 C24.98 0 26.96 0 29 0 C29 11.55 29 23.1 29 35 C22 35 22 35 20.22729492 33.70239258 C19.81584229 33.10579834 19.40438965 32.5092041 18.98046875 31.89453125 C18.51576172 31.24033203 18.05105469 30.58613281 17.57226562 29.91210938 C17.11529297 29.21923828 16.65832031 28.52636719 16.1875 27.8125 C15.47303711 26.80219727 15.47303711 26.80219727 14.74414062 25.77148438 C12.34402335 22.3113997 10.35090883 19.0214916 9 15 C8.34 15 7.68 15 7 15 C7 21.6 7 28.2 7 35 C4.69 35 2.38 35 0 35 C0 23.45 0 11.9 0 0 Z " fill="#0C1E2E" transform="translate(214,343)"/>
<path d="M0 0 C2.64 0 5.28 0 8 0 C11.24817308 7.0261344 14.04395057 14.18757928 16.75 21.4375 C17.16121094 22.52482422 17.57242188 23.61214844 17.99609375 24.73242188 C18.38410156 25.76818359 18.77210938 26.80394531 19.171875 27.87109375 C19.5234668 28.80880615 19.87505859 29.74651855 20.23730469 30.71264648 C21 33 21 33 21 35 C18.36 35 15.72 35 13 35 C12.34 33.35 11.68 31.7 11 30 C4.07 29.505 4.07 29.505 -3 29 C-3.66 30.98 -4.32 32.96 -5 35 C-7.31 35 -9.62 35 -12 35 C-11.45013181 30.24730094 -10.49361214 26.15032673 -8.75 21.69921875 C-8.3065625 20.55775391 -7.863125 19.41628906 -7.40625 18.24023438 C-6.9421875 17.06783203 -6.478125 15.89542969 -6 14.6875 C-5.5359375 13.49576172 -5.071875 12.30402344 -4.59375 11.07617188 C-1.21866883 2.43733766 -1.21866883 2.43733766 0 0 Z " fill="#0F2231" transform="translate(198,387)"/>
<path d="M0 0 C1.02996094 -0.00128906 2.05992187 -0.00257813 3.12109375 -0.00390625 C4.74724609 0.00189453 4.74724609 0.00189453 6.40625 0.0078125 C7.49035156 0.00394531 8.57445312 0.00007813 9.69140625 -0.00390625 C10.72136719 -0.00261719 11.75132812 -0.00132812 12.8125 0 C14.24045898 0.00169189 14.24045898 0.00169189 15.69726562 0.00341797 C17.90625 0.1328125 17.90625 0.1328125 18.90625 1.1328125 C19.03125 4.1328125 19.03125 4.1328125 18.90625 7.1328125 C17.90625 8.1328125 17.90625 8.1328125 14.30859375 8.23046875 C12.82028133 8.2237947 11.33198568 8.21183433 9.84375 8.1953125 C8.70583008 8.18854492 8.70583008 8.18854492 7.54492188 8.18164062 C5.66533129 8.1698193 3.78578101 8.15188328 1.90625 8.1328125 C1.90625 10.1128125 1.90625 12.0928125 1.90625 14.1328125 C6.85625 14.1328125 11.80625 14.1328125 16.90625 14.1328125 C16.90625 16.4428125 16.90625 18.7528125 16.90625 21.1328125 C11.95625 21.1328125 7.00625 21.1328125 1.90625 21.1328125 C1.90625 23.4428125 1.90625 25.7528125 1.90625 28.1328125 C7.51625 28.1328125 13.12625 28.1328125 18.90625 28.1328125 C18.90625 30.4428125 18.90625 32.7528125 18.90625 35.1328125 C14.92709841 35.16168234 10.94797347 35.17956656 6.96875 35.1953125 C5.26428711 35.20788086 5.26428711 35.20788086 3.52539062 35.22070312 C2.44580078 35.22392578 1.36621094 35.22714844 0.25390625 35.23046875 C-1.24644165 35.23832397 -1.24644165 35.23832397 -2.77709961 35.24633789 C-5.09375 35.1328125 -5.09375 35.1328125 -6.09375 34.1328125 C-6.19457764 31.69620804 -6.23347603 29.28856549 -6.2265625 26.8515625 C-6.22751923 26.12287964 -6.22847595 25.39419678 -6.22946167 24.64343262 C-6.23014335 23.1000154 -6.22828988 21.55659533 -6.22412109 20.01318359 C-6.21877262 17.6428385 -6.22406642 15.27268291 -6.23046875 12.90234375 C-6.22980797 11.40624958 -6.2285268 9.91015553 -6.2265625 8.4140625 C-6.22858673 7.70052612 -6.23061096 6.98698975 -6.23269653 6.25183105 C-6.20410071 0.28818565 -5.8678425 0.00695242 0 0 Z " fill="#142736" transform="translate(287.09375,342.8671875)"/>
<path d="M0 0 C5.26191907 3.16856971 5.26191907 3.16856971 6.53515625 6.98828125 C5.21515625 8.30828125 3.89515625 9.62828125 2.53515625 10.98828125 C-1.46484375 8.98828125 -1.46484375 8.98828125 -3.33984375 7.86328125 C-6.2729018 6.65555146 -8.31690998 6.60281997 -11.46484375 6.98828125 C-14.16475037 8.78821899 -16.00673025 10.07205425 -17.46484375 12.98828125 C-17.85931923 17.16972136 -17.91519561 19.29774173 -15.58984375 22.86328125 C-12.89036957 25.56275543 -12.04725454 25.93228021 -8.21484375 26.30078125 C-3.86635955 25.93840757 -1.8610235 24.63895813 1.53515625 21.98828125 C3.18515625 22.97828125 4.83515625 23.96828125 6.53515625 24.98828125 C6.21356896 27.98976261 5.55362604 28.97033917 3.34765625 31.11328125 C-1.90878353 34.61757443 -6.12237883 35.41866273 -12.2890625 34.52734375 C-17.85375579 33.14865852 -21.24517064 29.51967303 -24.46484375 24.98828125 C-26.74977173 20.41842529 -26.30186991 13.55849745 -24.74609375 8.78125 C-19.78254803 -0.40531245 -9.71031401 -3.98569149 0 0 Z " fill="#0E1F2E" transform="translate(162.46484375,344.01171875)"/>
<path d="M0 0 C1.12591553 0.00523682 2.25183105 0.01047363 3.41186523 0.01586914 C4.62680664 0.0190918 5.84174805 0.02231445 7.09350586 0.02563477 C8.37290039 0.03401367 9.65229492 0.04239258 10.97045898 0.05102539 C12.2537207 0.05553711 13.53698242 0.06004883 14.85913086 0.06469727 C18.04211921 0.07652994 21.22501661 0.09301471 24.40795898 0.11352539 C24.45037622 2.44647314 24.44888836 4.78055106 24.40795898 7.11352539 C24.07795898 7.44352539 23.74795898 7.77352539 23.40795898 8.11352539 C20.43795898 8.11352539 17.46795898 8.11352539 14.40795898 8.11352539 C14.40795898 17.02352539 14.40795898 25.93352539 14.40795898 35.11352539 C11.76795898 35.11352539 9.12795898 35.11352539 6.40795898 35.11352539 C6.40795898 26.20352539 6.40795898 17.29352539 6.40795898 8.11352539 C3.43795898 8.11352539 0.46795898 8.11352539 -2.59204102 8.11352539 C-3.59204102 7.11352539 -3.59204102 7.11352539 -3.71704102 4.11352539 C-3.55212641 0.15557491 -3.55212641 0.15557491 0 0 Z " fill="#152837" transform="translate(350.592041015625,342.886474609375)"/>
<path d="M0 0 C4.47915328 -0.02886338 8.95828291 -0.04675187 13.4375 -0.0625 C14.71689453 -0.07087891 15.99628906 -0.07925781 17.31445312 -0.08789062 C19.13686523 -0.09272461 19.13686523 -0.09272461 20.99609375 -0.09765625 C22.12200928 -0.10289307 23.2479248 -0.10812988 24.40795898 -0.11352539 C27 0 27 0 28 1 C28.125 4 28.125 4 28 7 C27.67 7.33 27.34 7.66 27 8 C23.7 8 20.4 8 17 8 C17 16.91 17 25.82 17 35 C14.69 35 12.38 35 10 35 C10 26.09 10 17.18 10 8 C6.7 8 3.4 8 0 8 C0 5.36 0 2.72 0 0 Z " fill="#0C1F2F" transform="translate(249,343)"/>
<path d="M0 0 C2.45243461 1.90063682 3.62927427 3.25854855 5 6 C5.5811138 13.08958838 5.5811138 13.08958838 3.125 16.9375 C-0.12942835 20.09620987 -2.42689859 20.3428071 -6.96484375 20.28515625 C-10.93766937 19.72850314 -13.05380527 17.24725669 -15.375 14.1875 C-16.33620615 10.82327848 -15.82844946 8.37297281 -15 5 C-10.69193522 -1.39261225 -7.21670747 -1.69502738 0 0 Z " fill="#F8F7F7" transform="translate(195,351)"/>
<path d="M0 0 C5.57894737 3.15789474 5.57894737 3.15789474 7 6 C7.62343986 11.03205028 7.82262012 14.77853376 4.9375 19.0625 C1.37979221 21.40907322 -0.73306973 22.07485843 -5 22 C-8.16483536 20.38772538 -10.27108725 18.99397194 -12.375 16.125 C-13.23855538 13.18891172 -13.36658209 11.05485074 -13 8 C-9.70213737 2.08659115 -6.98524795 -0.82179388 0 0 Z " fill="#F6F5F6" transform="translate(326,394)"/>
<path d="M0 0 C3 0.125 3 0.125 4 1.125 C4.08847743 3.64594076 4.11527301 6.13930893 4.09765625 8.66015625 C4.0962413 9.41340683 4.09482635 10.16665741 4.09336853 10.94273376 C4.08775376 13.3576956 4.07519883 15.77256601 4.0625 18.1875 C4.0574869 19.82096221 4.05292366 21.45442586 4.04882812 23.08789062 C4.03777954 27.10029585 4.02050506 31.11263241 4 35.125 C1.36 35.125 -1.28 35.125 -4 35.125 C-4.0246519 30.30119198 -4.04283693 25.47742033 -4.05493164 20.65356445 C-4.05997174 19.01130536 -4.06680378 17.36905077 -4.07543945 15.72680664 C-4.08751926 13.37124521 -4.09323139 11.01574291 -4.09765625 8.66015625 C-4.10281754 7.92160904 -4.10797882 7.18306183 -4.11329651 6.4221344 C-4.1134925 4.65601912 -4.06194719 2.89002854 -4 1.125 C-3 0.125 -3 0.125 0 0 Z " fill="#152938" transform="translate(296,386.875)"/>
<path d="M0 0 C1.34243036 4.02729108 -0.13941357 6.27785947 -1.8125 9.9375 C-2.08642578 10.55818359 -2.36035156 11.17886719 -2.64257812 11.81835938 C-4.01914662 14.91811433 -5.45000291 17.98317639 -7 21 C-12.8525557 15.29750983 -12.8525557 15.29750983 -13.3125 11.25 C-12.91993628 7.16733731 -11.53100884 5.18183968 -9 2 C-5.5647952 -0.29013653 -4.014669 -0.17842973 0 0 Z " fill="#F68C3C" transform="translate(326,394)"/>
<path d="M0 0 C1 2 1 2 0.47094727 3.87939453 C0.02319946 4.99483643 0.02319946 4.99483643 -0.43359375 6.1328125 C-0.75263672 6.93847656 -1.07167969 7.74414062 -1.40039062 8.57421875 C-1.74263672 9.41597656 -2.08488281 10.25773437 -2.4375 11.125 C-2.77587891 11.97449219 -3.11425781 12.82398438 -3.46289062 13.69921875 C-4.30176957 15.80232371 -5.14771125 17.90230155 -6 20 C-9.77582537 18.27234491 -11.34571318 16.91804773 -13 13 C-12.90530733 7.69721069 -11.68218754 4.79376898 -8 1 C-5.29120665 -0.35439668 -2.99066732 -0.06501451 0 0 Z " fill="#F58B3C" transform="translate(192,350)"/>
<path d="M0 0 C1.423125 -0.061875 2.84625 -0.12375 4.3125 -0.1875 C5.51326172 -0.23970703 5.51326172 -0.23970703 6.73828125 -0.29296875 C9 0 9 0 10.80859375 1.34765625 C12 3 12 3 11.75 5.625 C11 8 11 8 10 9 C8.31391034 9.07205511 6.62499341 9.08386068 4.9375 9.0625 C4.01839844 9.05347656 3.09929687 9.04445313 2.15234375 9.03515625 C1.44207031 9.02355469 0.73179687 9.01195312 0 9 C0 6.03 0 3.06 0 0 Z " fill="#F5F5F5" transform="translate(266,394)"/>
<path d="M0 0 C7.38461538 -0.36923077 7.38461538 -0.36923077 10.5 1.5 C10.995 1.995 11.49 2.49 12 3 C11.125 7.875 11.125 7.875 10 9 C8.31391034 9.07205511 6.62499341 9.08386068 4.9375 9.0625 C4.01839844 9.05347656 3.09929687 9.04445313 2.15234375 9.03515625 C1.44207031 9.02355469 0.73179687 9.01195312 0 9 C0 6.03 0 3.06 0 0 Z " fill="#F2F2F3" transform="translate(232,394)"/>
<path d="M0 0 C1.258125 -0.04125 2.51625 -0.0825 3.8125 -0.125 C4.52019531 -0.14820313 5.22789062 -0.17140625 5.95703125 -0.1953125 C8 0 8 0 11 2 C11.3125 4.5 11.3125 4.5 11 7 C9 9 9 9 6.8359375 9.1953125 C4.55729167 9.13020833 2.27864583 9.06510417 0 9 C0 6.03 0 3.06 0 0 Z " fill="#F6F6F7" transform="translate(355,394)"/>
<path d="M0 0 C4.47915328 -0.02886338 8.95828291 -0.04675187 13.4375 -0.0625 C14.71689453 -0.07087891 15.99628906 -0.07925781 17.31445312 -0.08789062 C19.13686523 -0.09272461 19.13686523 -0.09272461 20.99609375 -0.09765625 C22.12200928 -0.10289307 23.2479248 -0.10812988 24.40795898 -0.11352539 C27 0 27 0 28 1 C28.125 4 28.125 4 28 7 C27 8 27 8 24.93359375 8.09765625 C24.10988281 8.08605469 23.28617187 8.07445312 22.4375 8.0625 C21.61121094 8.05347656 20.78492188 8.04445313 19.93359375 8.03515625 C19.29550781 8.02355469 18.65742188 8.01195312 18 8 C18 7.34 18 6.68 18 6 C20.64 6 23.28 6 26 6 C26 4.35 26 2.7 26 1 C17.42 1 8.84 1 0 1 C0 0.67 0 0.34 0 0 Z " fill="#3D4C57" transform="translate(249,343)"/>
<path d="M0 0 C2.44839588 3.67259383 4 6.54648201 4 11 C1.36 11 -1.28 11 -4 11 C-3.5247412 9.35303396 -3.04468109 7.70745272 -2.5625 6.0625 C-2.29566406 5.14597656 -2.02882812 4.22945313 -1.75390625 3.28515625 C-1 1 -1 1 0 0 Z " fill="#EEF0F1" transform="translate(202,398)"/>
</svg>
